<svg xmlns="http://www.w3.org/2000/svg" width="728" height="729" fill="none" viewBox="0 0 728 729">
  <g clip-path="url(#a)">
    <circle cx="364" cy="364.5" r="240" fill="#07070F"/>
    <circle cx="364" cy="364.5" r="230" fill="#E3D20C"/>
    <circle cx="364" cy="364.5" r="222" fill="#030301"/>
    <circle cx="364.5" cy="364" r="216.5" fill="#E3D20C"/>
    <circle cx="364" cy="364.5" r="207" fill="#020102"/>
    <circle cx="364.5" cy="364" r="201.5" fill="#E3D20C"/>
    <circle cx="363.5" cy="365" r="188.5" fill="#040006"/>
    <circle cx="364.5" cy="365" r="183.5" fill="#112064"/>
    <ellipse cx="364" cy="365" fill="#010100" rx="140" ry="140.5"/>
    <circle cx="364.5" cy="364" r="129.5" fill="#6E7BA7"/>
    <path fill="#112064" d="M353.404 497.5S334 487.027 336.169 480.209c2.87-9.02 27.603-6.061 39.065 0C383.5 484.58 385 496.117 385 496.117l-31.596 1.383Z"/>
    <path fill="#fff" d="M229.242 298.586c-.403 1.223-1.043 2.095-1.921 2.615-.904.513-1.952.612-3.143.297l-16.284-4.3-1.712-2.576.434-1.317 14.944 3.946c-.001-.087.025-.21.077-.369.035-.194.082-.383.144-.57.359-1.09.986-1.878 1.882-2.364.896-.487 1.926-.576 3.09-.268 1.164.307 1.971.896 2.42 1.766.458.843.481 1.89.069 3.14Zm-1.693-.49c.228-.692.201-1.234-.082-1.626-.274-.419-.722-.711-1.345-.876-.622-.164-1.176-.137-1.66.082-.475.193-.827.635-1.055 1.326-.219.665-.191 1.207.083 1.626.274.419.722.711 1.345.876.622.164 1.176.137 1.66-.082.484-.219.835-.661 1.054-1.326Zm13.572-22.916-18.118-7.73c-.592-.253-1.122-.327-1.588-.223-.466.104-.838.416-1.114.935a2.58 2.58 0 0 0-.279.882c-.029.291.052.614.243.968.165.343.504.746 1.016 1.207l14.734 13.02-1.539 2.892-15.027-6.412.547-.494c.089.189.119.46.09.811-.055.341-.194.721-.418 1.141-.513.964-1.269 1.643-2.268 2.035-.999.393-2.052.353-3.16-.119-1.081-.462-1.767-1.164-2.055-2.106-.315-.953-.15-2.035.495-3.246.592-1.112 1.381-1.883 2.368-2.311.999-.453 2.169-.394 3.508.177l4.983 2.127a80.23 80.23 0 0 1 3.804 1.759 51.905 51.905 0 0 1 3.686 1.891l.079-.148a89.36 89.36 0 0 1-2.271-1.879 76.071 76.071 0 0 0-1.865-1.66 49.94 49.94 0 0 0-2.213-1.9l-3.926-3.221c-.924-.759-1.615-1.448-2.075-2.069-.46-.62-.68-1.276-.661-1.965-.006-.7.241-1.52.74-2.459.856-1.607 1.827-2.542 2.916-2.806 1.062-.274 2.134-.181 3.216.281l15.53 6.626 1.273 2.772-.651 1.224Zm-22.88 6.116c.684-1.286.357-2.214-.983-2.785-1.339-.572-2.35-.215-3.034 1.071-.316.593-.399 1.134-.248 1.623.164.464.58.839 1.25 1.124.644.275 1.232.329 1.763.161.519-.203.936-.601 1.252-1.194Zm38.695-25.084-13.093-8.752c-1.816-1.214-3.422-1.701-4.818-1.462-1.401.202-2.792 1.131-4.173 2.787-1.111 1.333-1.719 2.518-1.822 3.554a3.864 3.864 0 0 0 .807 2.75c.623.818 1.458 1.578 2.506 2.278.582.389 1.161.759 1.738 1.111.571.315 1.18.672 1.826 1.071a38.31 38.31 0 0 1 2.324 1.452l.107-.129c-1.444-1.702-2.386-3.052-2.824-4.048-.443-1.033-.636-1.932-.578-2.697.029-.383.113-.745.253-1.087.135-.379.373-.772.713-1.181.807-.968 1.735-1.537 2.783-1.707 1.025-.185 2.049.064 3.074.749.907.607 1.428 1.373 1.562 2.3.151.905-.149 1.809-.902 2.712a5.506 5.506 0 0 1-1.401 1.224 3.596 3.596 0 0 1-1.672.44c-.611-.007-1.243-.161-1.897-.464l.946-.222c.203.973.851 2.11 1.943 3.409 1.11 1.278 2.491 2.469 4.144 3.574l1.117.747-2.206 2.645-2.374-1.588c-1.466-.98-2.835-1.795-4.107-2.443a190.54 190.54 0 0 0-3.605-1.807 27.164 27.164 0 0 1-3.129-1.791c-1.374-.918-2.375-1.956-3.005-3.114-.653-1.173-.822-2.492-.508-3.956.333-1.486 1.279-3.164 2.839-5.035.718-.86 1.361-1.502 1.931-1.924a37.512 37.512 0 0 1 1.63-1.172c.498-.337.989-.795 1.473-1.376.628-.753.935-1.468.921-2.147-.037-.695-.346-1.237-.928-1.626.573-.688 1.129-1.137 1.667-1.347.537-.21 1.097-.121 1.679.268.442.296.722.7.838 1.213.092.498-.004 1.07-.289 1.716-.291.61-.815 1.281-1.571 2.015l.051.134a6.837 6.837 0 0 1 2.499.264c.808.205 1.607.572 2.399 1.101l11.313 7.563.707 2.934-.888 1.064Zm-12.049-1.071c.467-.559.647-1.058.542-1.497-.129-.454-.461-.86-.996-1.218-.559-.374-1.088-.543-1.588-.509-.5.034-.983.331-1.449.89-.449.538-.629 1.037-.542 1.497.106.439.438.845.996 1.218.536.358 1.065.528 1.588.509.518-.056 1.001-.352 1.449-.89Zm19.888-5.634-1.165-1.151.848-.688c.435-.353.65-.688.645-1.006.017-.336-.194-.721-.632-1.154l-9.258-9.154.701-.246c.011.206-.065.464-.226.774-.182.291-.457.586-.827.885a4.37 4.37 0 0 1-2.9 1.008c-1.085-.016-2.055-.448-2.912-1.294-.836-.827-1.209-1.725-1.12-2.693.07-.988.638-1.914 1.703-2.778.979-.793 2.012-1.201 3.099-1.222 1.108-.039 2.18.454 3.216 1.477l12.304 12.167 4.339-3.518c.936-.758 1.471-1.461 1.608-2.109.136-.648-.194-1.366-.99-2.153l-11.409-11.281-.133-3.009 1.076-.873 12.842 12.698c.976.965 1.537 1.872 1.683 2.721.148.811-.027 1.598-.524 2.359-.497.761-1.224 1.53-2.181 2.305l-9.787 7.935Zm-10.913-13.08c1.131-.917 1.179-1.887.144-2.911-1.036-1.023-2.119-1.077-3.25-.16-.522.423-.806.886-.851 1.389-.024.485.223.984.74 1.496.498.492 1.028.761 1.589.808.564.009 1.106-.198 1.628-.622Zm40.328-5.934-9.559-13.559c-.806-1.145-1.61-1.922-2.412-2.334-.777-.425-1.55-.579-2.321-.464-.787.093-1.583.367-2.387.821-1.121.634-1.826 1.448-2.113 2.443-.263.98.154 2.249 1.251 3.805-.951.537-1.779.813-2.485.828-.697-.022-1.312-.411-1.844-1.166-.549-.778-.704-1.602-.465-2.473.222-.894.736-1.76 1.542-2.6.789-.862 1.782-1.631 2.976-2.306 2.584-1.46 4.787-1.985 6.61-1.575 1.807.387 3.388 1.541 4.743 3.463l8.059 11.431-.388 3.004-1.207.682Zm13.789-5.402c-1.234.458-2.332.479-3.294.062-.974-.443-1.761-1.311-2.361-2.607l-1.289-2.782c-.766-1.651-1.127-3.095-1.085-4.332.043-1.237.432-2.289 1.167-3.158.762-.879 1.8-1.562 3.112-2.049 1.024-.38 2.02-.587 2.99-.619a8.72 8.72 0 0 1 2.791.347 9.27 9.27 0 0 1 2.562 1.148l.101-.082-2.137-4.611c-.8-1.728-1.797-2.816-2.99-3.267-1.167-.46-2.721-.329-4.664.393-1.863.692-3.012 1.565-3.446 2.62-.446 1.029-.252 2.446.584 4.249-1.129.42-2.013.569-2.653.45-.625-.155-1.103-.588-1.432-1.299-.436-.94-.471-1.88-.107-2.819.391-.95 1.128-1.849 2.211-2.698 1.084-.849 2.479-1.59 4.185-2.224 2.861-1.063 5.252-1.281 7.172-.654 1.948.617 3.463 2.094 4.546 4.431l5.72 12.347-.905 2.927-1.299.482-1.324-2.858c-.836-1.803-1.834-3.294-2.995-4.471-1.16-1.177-2.39-1.971-3.688-2.382-1.31-.436-2.581-.426-3.815.033-1.207.448-1.983 1.198-2.327 2.248-.317 1.042-.135 2.299.548 3.772l.3.648c.093-.064.219-.126.376-.184.146-.084.311-.16.494-.228 1.077-.4 2.077-.399 3.001.002.95.391 1.679 1.133 2.185 2.225.506 1.093.565 2.083.177 2.972-.4.863-1.204 1.519-2.411 1.968Zm-.606-1.607c.63-.234 1.019-.557 1.166-.969.162-.447.096-.988-.198-1.623-.612-1.322-1.548-1.748-2.808-1.28-1.26.468-1.59 1.35-.99 2.645.601 1.296 1.544 1.705 2.83 1.227Zm26.152-5.903c-1.258.277-2.331.17-3.22-.321-.897-.518-1.508-1.371-1.835-2.559l-4.463-16.24 1.364-2.792 1.353-.298 4.097 14.903c.074-.045.194-.085.358-.122.184-.069.371-.124.563-.167 1.121-.247 2.116-.108 2.985.416.869.525 1.463 1.367 1.783 2.528.319 1.161.216 2.157-.31 2.989-.498.826-1.39 1.38-2.675 1.663Zm-.426-1.71c.711-.156 1.165-.457 1.361-.901.225-.45.251-.986.081-1.607-.171-.621-.472-1.084-.904-1.39-.405-.312-.963-.389-1.674-.232-.683.15-1.137.451-1.361.901-.225.45-.251.986-.081 1.607.171.621.472 1.084.904 1.39.432.305.99.383 1.674.232Zm15.011.106c-1.061.079-1.945-.051-2.652-.392-.706-.34-1.242-.805-1.606-1.395a5.155 5.155 0 0 1-.61-2.018c-.131-1.394.237-2.572 1.103-3.536.866-.963 2.025-1.499 3.477-1.607l-.726-7.779.694.201c-.124.178-.347.349-.67.513-.324.137-.724.223-1.199.259-1.088.081-2.042-.198-2.861-.839-.819-.64-1.285-1.56-1.397-2.759-.109-1.171.181-2.133.869-2.886.687-.782 1.714-1.223 3.082-1.326 1.256-.094 2.307.164 3.151.775.872.608 1.376 1.637 1.512 3.087l1.003 10.747c.909.101 1.848.367 2.816.8.994.403 1.984.918 2.97 1.546a25.157 25.157 0 0 1 2.8 1.981l.126-.01-1.621-17.354 1.826-2.579 1.382-.104 1.953 20.909-1.826 2.579-1.382.104a36.183 36.183 0 0 0-2.859-2.608 20.26 20.26 0 0 0-2.986-2.176c-1.015-.626-2.024-1.042-3.027-1.248l.277 2.969c.138 1.478-.172 2.526-.929 3.144-.733.588-1.629.922-2.69 1.002Zm-.785-1.626c.475-.036.784-.185.928-.449.172-.265.239-.607.2-1.025l-.387-4.14c-.949.071-1.678.392-2.187.964-.509.571-.716 1.373-.619 2.404.065.697.258 1.258.579 1.683.348.423.844.611 1.486.563Zm-1.308-15.82c1.452-.109 2.11-.888 1.974-2.338-.135-1.449-.929-2.12-2.381-2.011-.67.05-1.183.271-1.54.663-.329.389-.46.947-.393 1.671.066.697.298 1.227.697 1.591.425.333.972.474 1.643.424Zm.279-10.958.043-1.301c.046-1.371.405-2.468 1.076-3.29.672-.823 1.546-1.401 2.622-1.737 1.048-.364 2.188-.53 3.42-.497 1.4.038 2.58.335 3.542.893.934.557 1.65 1.346 2.149 2.368l.06-1.805 1.108-1.735 1.008.027-.196 5.877 1.595.042.137-4.114 1.319-1.729 1.091.029-.249 7.472-18.725-.5Zm3.328-1.507 8.649.23c-.066-.533-.287-1.058-.662-1.572-.402-.543-.948-.991-1.636-1.346-.689-.354-1.551-.545-2.586-.573-1.26-.034-2.194.25-2.802.85-.608.6-.929 1.403-.963 2.411Zm33.492 30.279c-1.946-.235-3.515-.622-4.708-1.161-1.16-.563-1.964-1.336-2.41-2.32-.442-1.012-.546-2.293-.312-3.844l.719-4.776c.217-1.44.763-2.431 1.637-2.974.878-.571 1.943-.78 3.194-.629 1.306.158 2.239.637 2.798 1.437.59.776.8 1.732.629 2.867-.179 1.191-.655 2.092-1.426 2.703-.771.612-1.81.839-3.117.681-.667-.08-1.162-.267-1.486-.56l.771-.33-.432 2.866c-.212 1.412.045 2.43.772 3.053.727.624 1.966 1.041 3.717 1.253 1.779.214 3.159.071 4.141-.431 1.009-.498 1.647-1.633 1.914-3.405l1.557-10.342c.309-2.049.043-3.476-.798-4.282-.837-.834-2.145-1.359-3.924-1.574-1.918-.231-3.306-.032-4.165.597s-1.431 1.885-1.714 3.768a10.26 10.26 0 0 1-1.649-.326c-.488-.144-.862-.386-1.122-.728-.26-.341-.344-.816-.252-1.426a3.64 3.64 0 0 1 1.328-2.334c.748-.643 1.776-1.082 3.086-1.319 1.341-.261 2.915-.282 4.722-.064 3.336.403 5.563 1.306 6.682 2.71 1.146 1.407 1.547 3.259 1.2 5.557l-1.463 9.719c-.351 2.326-1.288 3.946-2.813 4.861-1.493.891-3.852 1.142-7.076.753Zm-2.823-9.729c.723.088 1.266-.044 1.631-.395.392-.347.638-.853.738-1.518.096-.636.018-1.153-.234-1.55-.247-.425-.732-.681-1.455-.768-.723-.087-1.28.043-1.672.39-.392.348-.636.84-.732 1.476-.096.637-.006 1.17.269 1.598.275.427.76.683 1.455.767Zm26.663 14.31c-1.16-.322-2.068-.69-2.723-1.104-.637-.381-1.098-.886-1.382-1.516-.258-.622-.406-1.432-.445-2.429a57.085 57.085 0 0 1 .051-3.858c.07-1.228.103-2.219.099-2.974.032-.775.017-1.373-.043-1.796-.051-.449-.157-.783-.318-1.002-.134-.211-.345-.371-.632-.48l.509-1.468.323.089c.864.24 1.569.509 2.117.806.547.297.945.77 1.194 1.419.133.298.207.682.222 1.15.052.449.062 1.018.03 1.705.005.668-.018 1.503-.069 2.504-.084 1.949-.12 3.418-.108 4.408.012.989.143 1.678.393 2.066.25.389.699.673 1.346.853.647.18 1.184.169 1.608-.032.434-.227.82-.831 1.16-1.809l4.057-11.707.444.384c-.145.076-.398.122-.758.138a3.298 3.298 0 0 1-1.026-.111c-1.133-.315-1.949-.905-2.449-1.768-.499-.864-.551-1.865-.157-3.002.385-1.112 1.057-1.897 2.014-2.356.967-.485 2.111-.544 3.433-.177 1.214.337 2.089.928 2.624 1.773.563.852.605 1.966.129 3.342l-4.553 13.136c-.468 1.349-1.01 2.358-1.626 3.028a3.52 3.52 0 0 1-2.264 1.155c-.865.108-1.932-.015-3.2-.367Zm6.72-16.318c1.403.39 2.343-.103 2.82-1.479.477-1.376.014-2.258-1.389-2.648-.648-.18-1.22-.151-1.717.088-.47.247-.824.714-1.062 1.402-.229.661-.233 1.226-.011 1.694.259.449.712.763 1.359.943Zm10.726 21.51c-1.169-.541-1.917-1.255-2.242-2.142-.311-.912-.158-1.902.457-2.969l8.414-14.59 3.085-1.246 1.258.581-7.721 13.389c.09.011.211.052.364.123.192.058.376.128.554.21 1.042.482 1.706 1.173 1.992 2.073.286.9.128 1.872-.474 2.914-.601 1.043-1.407 1.715-2.418 2.016-.985.313-2.075.193-3.269-.359Zm.919-1.511c.661.306 1.229.353 1.704.143.501-.198.912-.577 1.234-1.135.322-.557.428-1.077.319-1.557-.084-.469-.456-.856-1.117-1.162-.635-.293-1.203-.341-1.704-.142-.501.198-.912.576-1.234 1.134-.322.558-.428 1.077-.319 1.558.109.48.482.868 1.117 1.161Zm10.937 6.992c-1.169-.54-1.916-1.254-2.241-2.142-.311-.912-.159-1.901.456-2.969l8.414-14.589 3.085-1.247 1.258.582-7.721 13.389c.09.011.211.052.364.122.192.058.377.128.555.21 1.042.482 1.705 1.173 1.991 2.073.286.9.128 1.872-.474 2.915-.601 1.043-1.407 1.715-2.418 2.016-.985.312-2.075.193-3.269-.36Zm.919-1.51c.661.305 1.229.353 1.705.143.5-.199.912-.577 1.233-1.135.322-.558.428-1.077.319-1.558-.083-.469-.456-.856-1.116-1.161-.636-.294-1.204-.342-1.705-.143-.501.199-.912.577-1.234 1.135-.321.558-.428 1.077-.319 1.557.11.481.482.868 1.117 1.162Zm9.651 7.659c-1.075-.759-1.658-1.613-1.75-2.563-.072-.971.363-1.993 1.307-3.065l2.025-2.301c1.203-1.367 2.412-2.319 3.628-2.858 1.216-.539 2.432-.72 3.648-.544 1.24.193 2.431.693 3.575 1.5.733.517 1.331 1.059 1.797 1.625a6.586 6.586 0 0 1 1.058 1.769c.281.607.457 1.208.527 1.803.093.61.11 1.202.052 1.774l.131.041 3.357-3.815c1.258-1.43 1.787-2.726 1.587-3.889-.2-1.163-1.147-2.342-2.84-3.537-1.602-1.129-3.003-1.624-4.202-1.482-1.2.141-2.466.969-3.798 2.482-.984-.694-1.582-1.32-1.795-1.879-.171-.564.002-1.14.52-1.729.684-.777 1.564-1.23 2.64-1.356 1.095-.148 2.309.01 3.643.474 1.376.46 2.784 1.198 4.226 2.215 1.029.726 1.752 1.338 2.167 1.835.457.493.824.939 1.102 1.34.296.379.719.762 1.268 1.15.87.613 1.693.921 2.469.924.795-.019 1.424-.291 1.886-.816.732.516 1.21 1.006 1.432 1.47.223.464.103.958-.36 1.484-.351.399-.814.651-1.389.757-.575.105-1.213.03-1.915-.226-.678-.241-1.404-.701-2.177-1.383l-.151.047a5.23 5.23 0 0 1-.427 2.254c-.27.729-.72 1.451-1.349 2.165l-8.99 10.216-3.291.642-1.132-.798 2.08-2.365c1.314-1.493 2.241-2.968 2.782-4.426.542-1.458.678-2.792.409-4.004-.25-1.233-.913-2.228-1.988-2.987-1.053-.742-2.175-1.006-3.366-.79-1.15.211-2.27.937-3.361 2.177l-.472.536c.087.027.199.089.336.186.156.076.314.17.474.283.938.662 1.462 1.458 1.572 2.387.109.929-.234 1.845-1.029 2.749-.795.904-1.722 1.409-2.779 1.514-1.039.085-2.084-.244-3.137-.986Zm1.241-1.22c.549.387 1.06.544 1.534.469.515-.08 1.004-.382 1.466-.908.962-1.093.894-2.027-.205-2.801-1.098-.775-2.119-.626-3.062.446-.943 1.072-.854 2.003.267 2.794Zm18.127 14.98 12.92-10 .268.638c-.23.002-.517-.075-.862-.231-.322-.173-.648-.431-.978-.773-.759-.786-1.124-1.665-1.095-2.637.028-.973.518-1.827 1.47-2.564.93-.72 1.935-1.022 3.013-.907 1.101.099 2.128.641 3.081 1.628.875.907 1.319 1.848 1.333 2.823.032.995-.527 1.939-1.679 2.83l-12.355 9.563.087.09c1.226.108 2.393.295 3.503.563 1.131.25 2.195.571 3.191.961 1.019.374 1.908.794 2.669 1.261l9.864-7.635 3.356-.01.963.997-11.592 8.971c1.011 1.048 1.496 2.151 1.454 3.31-.042 1.159-.605 2.158-1.69 2.998a5.358 5.358 0 0 1-1.982.952 4.48 4.48 0 0 1-2.287-.024c-.78-.207-1.519-.672-2.22-1.397-.816-.846-1.245-1.711-1.286-2.595-.018-.901.548-1.797 1.7-2.688l2.258-1.748c-.888-.439-1.917-.804-3.088-1.094a28.604 28.604 0 0 0-3.656-.602 40.652 40.652 0 0 0-3.968-.202l-2.392-2.478Zm12.851-11.213c1.011 1.047 2.093 1.125 3.244.234 1.152-.891 1.222-1.86.21-2.908-.466-.483-.98-.755-1.54-.814-.541-.039-1.099.164-1.674.61-.554.428-.859.893-.917 1.395-.015.505.21.999.677 1.483Zm-.652 22.045c.33.342.8.488 1.41.439.61-.05 1.225-.315 1.845-.794.775-.6 1.166-1.237 1.173-1.911.048-.671-.239-1.329-.861-1.974l-3.189 2.468c-.354.274-.583.558-.688.85-.105.292-.002.599.31.922Zm5.594 9.528c-.712-1.107-.933-2.122-.664-3.044.293-.935 1.075-1.73 2.344-2.384l2.726-1.404c1.618-.833 3.088-1.278 4.412-1.332 1.323-.055 2.514.225 3.571.84 1.074.639 1.989 1.547 2.745 2.725.485.754.837 1.482 1.056 2.184.219.702.326 1.384.321 2.045a6.05 6.05 0 0 1-.183 1.881 7.11 7.11 0 0 1-.611 1.679l.106.087 4.517-2.328c1.693-.872 2.663-1.889 2.91-3.051.247-1.162-.189-2.614-1.31-4.357-1.059-1.649-2.17-2.629-3.33-2.94-1.161-.312-2.638-.006-4.43.918-.651-1.013-.971-1.82-.96-2.422.051-.59.425-1.065 1.122-1.424.921-.475 1.902-.573 2.943-.294 1.066.267 2.128.863 3.188 1.791 1.1.938 2.127 2.149 3.081 3.633.681 1.06 1.121 1.9 1.32 2.518.239.63.412 1.183.52 1.661.133.464.381.979.745 1.544.575.896 1.221 1.488 1.937 1.777.741.277 1.422.255 2.045-.066.484.754.743 1.389.776 1.905.034.516-.261.934-.883 1.254-.473.244-.995.309-1.565.195-.57-.114-1.131-.42-1.684-.919-.538-.476-1.037-1.175-1.497-2.098l-.158-.013a5.29 5.29 0 0 1-1.231 1.951c-.52.582-1.204 1.091-2.05 1.527l-12.097 6.232-3.278-.615-.749-1.166 2.8-1.443c1.767-.91 3.171-1.948 4.213-3.111 1.041-1.164 1.662-2.362 1.864-3.594.227-1.246-.016-2.422-.727-3.529-.696-1.084-1.635-1.745-2.815-1.983-1.14-.228-2.445.036-3.913.793l-.635.327c.07.058.151.157.242.299.115.128.226.275.332.44.621.966.809 1.903.565 2.813-.243.909-.9 1.64-1.971 2.191-1.07.551-2.113.681-3.129.389-.991-.304-1.835-.998-2.531-2.082Zm1.599-.683c.363.566.777.901 1.243 1.006.505.116 1.069.014 1.691-.307 1.294-.667 1.578-1.565.851-2.696-.726-1.131-1.724-1.369-2.994-.715-1.269.654-1.533 1.558-.791 2.712Zm-6.973 13.188 3.4-1.341a.743.743 0 0 1-.169-.248 3.159 3.159 0 0 1-.262-.437c-.42-.854-.473-1.658-.16-2.412.288-.743.887-1.294 1.799-1.654.938-.37 1.816-.386 2.635-.049.806.312 1.451.958 1.933 1.937.469.955.592 1.837.368 2.645-.225.809-.832 1.408-1.821 1.798l-4.494 1.772-2.635-.805-.594-1.206Zm4.448-2.339c.26.528.614.868 1.062 1.021.436.128.902.094 1.397-.101.521-.205.876-.495 1.065-.87.15-.389.096-.848-.164-1.375-.259-.528-.594-.861-1.004-.999-.437-.128-.915-.089-1.436.116-.495.195-.837.48-1.026.855-.189.374-.154.825.106 1.353Zm16.225 19.25c-.496-1.369-.791-2.593-.884-3.671-.067-1.087.163-2.012.689-2.775.535-.738 1.461-1.298 2.779-1.68l6.292-1.827c.988 1.168 2.124 2.089 3.408 2.763 1.285.675 2.693.79 4.226.344 1.371-.398 2.26-1.063 2.665-1.995.432-.94.462-1.924.09-2.951a4.35 4.35 0 0 0-.978-1.592 4.194 4.194 0 0 0-1.345-1.006 3.62 3.62 0 0 0-1.332-.355l-.05.232c.301.175.558.391.77.649.213.259.395.599.548 1.02.324.895.322 1.71-.006 2.445-.328.736-.976 1.244-1.944 1.525-.914.266-1.785.199-2.613-.201-.819-.373-1.424-1.1-1.815-2.179-.41-1.132-.358-2.136.157-3.013.541-.885 1.43-1.507 2.667-1.866 1.694-.492 3.239-.329 4.634.488 1.405.843 2.413 2.107 3.023 3.792.658 1.816.618 3.428-.12 4.835-.712 1.4-1.901 2.342-3.568 2.826-1.318.382-2.71.394-4.178.034-1.467-.359-2.829-1.084-4.086-2.174l-5.405 1.57c-1.075.312-1.783.779-2.122 1.402-.33.648-.271 1.591.178 2.828.438 1.211 1.004 1.993 1.696 2.345.701.378 1.657.391 2.867.04l15.287-4.439 3.04 1.256.472 1.303-17.465 5.071c-1.936.562-3.489.417-4.66-.436-1.134-.834-2.107-2.371-2.917-4.608Zm12.061-11.62c.172.474.458.813.859 1.016.4.204.843.236 1.327.095s.821-.399 1.012-.774c.191-.375.201-.8.029-1.274-.172-.474-.458-.813-.858-1.016-.401-.204-.843-.236-1.327-.095-.484.14-.822.398-1.013.774-.191.375-.2.8-.029 1.274ZM256.016 503.657c-1.626-1.373-2.563-2.622-2.81-3.746-.208-1.129.169-2.294 1.131-3.496l2.1-2.623.137.5a1.777 1.777 0 0 1-.729-.231 6.127 6.127 0 0 1-.54-.401c-.877-.74-1.375-1.619-1.494-2.635-.08-1.02.257-2 1.009-2.94.717-.896 1.552-1.4 2.502-1.513.973-.095 1.983.3 3.031 1.185.899.759 1.455 1.631 1.669 2.618.253.983-.075 2.043-.985 3.179l-4.016 5.017c-.647.809-.963 1.495-.947 2.057.054.559.434 1.137 1.14 1.733.899.758 1.664 1.057 2.296.894.671-.166 1.33-.654 1.978-1.462l7.375-9.214c1.295-1.618 1.797-3.007 1.507-4.167-.251-1.165-1.039-2.307-2.366-3.427-1.369-1.156-2.613-1.73-3.731-1.722-1.101-.013-2.246.723-3.436 2.21-.535-.452-.96-.884-1.275-1.296-.297-.435-.457-.863-.478-1.284 0-.403.183-.834.551-1.293.612-.765 1.396-1.184 2.351-1.257.972-.095 2.064.131 3.275.678 1.23.525 2.518 1.356 3.866 2.494 2.524 2.132 3.887 4.125 4.088 5.979.218 1.833-.391 3.645-1.825 5.438l-6.693 8.361c-.945 1.18-1.892 1.938-2.841 2.272-.91.331-1.853.322-2.83-.026-.958-.37-1.962-.997-3.01-1.882Zm.526-11.206c.556.47 1.074.651 1.555.544.501-.089.953-.385 1.356-.888.402-.503.598-1.016.586-1.538-.012-.523-.296-1.019-.852-1.489-.535-.452-1.053-.633-1.555-.544-.463.086-.895.38-1.298.883-.42.524-.624 1.048-.612 1.571.012.523.285 1.01.82 1.461Zm21.15-5.404c-1.058-.735-1.967-1.518-2.726-2.351-.758-.833-1.279-1.671-1.562-2.515a5.59 5.59 0 0 1-.274-1.876 3.375 3.375 0 0 1 .578-1.796c.6-.912 1.334-1.391 2.201-1.437.883-.069 1.773.208 2.671.83.897.623 1.483 1.387 1.758 2.293.268.867.125 1.722-.429 2.564-.431.655-.915 1.034-1.453 1.139a6.387 6.387 0 0 1-1.508.077l-.069.106c.26.317.525.602.793.856.261.215.587.458.978.73 1.541 1.069 3.018 1.651 4.43 1.744 1.413.094 2.619-.619 3.619-2.14l.692-1.053c.874.607 1.438 1.151 1.691 1.633.275.498.144 1.156-.395 1.975-1.03 1.567-2.509 2.262-4.436 2.084-1.911-.201-4.097-1.156-6.559-2.863Zm-1.962-4.887c.483.335.955.458 1.416.368.437-.105.81-.391 1.118-.859.307-.468.427-.93.358-1.386-.091-.473-.378-.876-.861-1.212-.461-.319-.91-.426-1.347-.32-.461.089-.845.367-1.153.835-.308.468-.416.938-.324 1.41.068.457.333.844.793 1.164Zm5.785 38.744c-1.043-.6-1.839-1.187-2.387-1.761a3.733 3.733 0 0 1-1.042-1.859c-.134-.691-.13-1.545.01-2.562.154-1.042.399-2.338.734-3.889.286-1.225.493-2.219.624-2.984.168-.775.26-1.384.278-1.826.032-.466-.01-.829-.123-1.088a1.338 1.338 0 0 0-.515-.635l.744-1.365.292.168c.776.447 1.398.885 1.865 1.315.467.43.76 1.003.88 1.718.074.333.076.738.007 1.215-.031.467-.123 1.044-.275 1.731a46.845 46.845 0 0 1-.511 2.516c-.426 1.951-.722 3.428-.887 4.431-.164 1.003-.163 1.731.005 2.183.168.452.544.845 1.126 1.18.583.336 1.093.452 1.532.349.452-.128.926-.646 1.422-1.555l5.934-10.877.352.493c-.15.043-.398.029-.743-.04a3.14 3.14 0 0 1-.954-.355c-1.019-.587-1.689-1.376-2.009-2.367-.32-.992-.192-2.016.385-3.073.563-1.032 1.34-1.667 2.33-1.905 1.004-.262 2.101-.051 3.29.633 1.092.629 1.817 1.434 2.175 2.414.382.995.224 2.132-.473 3.41l-6.658 12.204c-.684 1.254-1.378 2.146-2.082 2.678-.705.531-1.489.742-2.354.632-.84-.096-1.831-.473-2.972-1.129Zm9.282-14.909c1.262.726 2.241.45 2.938-.828.698-1.278.415-2.281-.847-3.007-.582-.335-1.13-.44-1.644-.316-.49.138-.909.526-1.258 1.165-.335.615-.439 1.185-.311 1.711.165.515.539.94 1.122 1.275Zm20.02 27.706 4.361-12.09a5.06 5.06 0 0 0 .267-1.111c.071-.363.066-.679-.015-.95a21.109 21.109 0 0 0-3.435 1.479 27.134 27.134 0 0 0-3.374 2.176 39.625 39.625 0 0 0-3.395 2.977 54.984 54.984 0 0 0-3.509 3.787l-3.022-1.15 5.543-15.369.543.476c-.188.108-.463.169-.824.181-.352-.014-.751-.106-1.196-.275-1.02-.389-1.765-1.046-2.234-1.974-.469-.927-.499-1.957-.091-3.09.399-1.106 1.071-1.854 2.015-2.243.953-.416 2.071-.38 3.354.107 1.177.449 2.019 1.128 2.523 2.039.531.921.55 2.066.056 3.436l-4.376 12.129.143.099c.954-.746 1.983-1.537 3.089-2.374a33.34 33.34 0 0 1 3.616-2.354 18.692 18.692 0 0 1 3.878-1.714 3.14 3.14 0 0 1-1.146-1.65c-.193-.702-.133-1.488.18-2.357.418-1.159 1.086-1.938 2.004-2.338.918-.399 1.953-.38 3.105.058 1.151.438 1.948 1.116 2.391 2.033.443.917.455 1.956.037 3.115-.294.816-.711 1.436-1.251 1.86a3.536 3.536 0 0 1-1.855.687l-.043.118c.272.403.44.886.504 1.45.1.547.013 1.203-.263 1.967l-3.534 9.798-2.75 1.56-1.296-.493Zm-7.25-21.36c1.361.518 2.288.092 2.782-1.278.494-1.369.061-2.313-1.3-2.831-.628-.239-1.187-.257-1.677-.054-.464.213-.819.662-1.066 1.347-.237.658-.253 1.237-.045 1.735.242.482.678.842 1.306 1.081Zm13.229 5.033c.549.209 1.069.212 1.559.009.526-.219.907-.658 1.145-1.317.247-.684.236-1.273-.033-1.764-.243-.482-.639-.828-1.189-1.037-.628-.239-1.174-.252-1.638-.039-.463.213-.819.662-1.066 1.347-.494 1.37-.087 2.303 1.222 2.801Zm17.188 22.255c-1.344-.274-2.307-.828-2.887-1.661-.547-.854-.712-1.845-.494-2.972.229-1.183.766-2.044 1.613-2.586.851-.569 1.826-.742 2.923-.518.329.068.651.176.964.326.34.155.591.335.751.539l-.846.17 1.86-9.608c.266-1.374.237-2.48-.085-3.318-.323-.837-.842-1.472-1.557-1.903-.682-.454-1.476-.773-2.381-.958a5.61 5.61 0 0 0-2.442.016c-.749.19-1.418.625-2.006 1.305-.555.658-.952 1.606-1.192 2.843-1.07-.218-1.861-.551-2.373-.999-.48-.469-.632-1.158-.456-2.065.181-.934.705-1.656 1.574-2.165.901-.53 1.976-.853 3.225-.97a12.78 12.78 0 0 1 3.939.204c2.908.594 4.928 1.649 6.06 3.166 1.138 1.49 1.483 3.389 1.036 5.698l-2.322 11.999c-.277 1.43-.841 2.429-1.693 2.998-.824.575-1.894.728-3.211.459Zm.196-1.674c.768.156 1.34.073 1.716-.25.409-.345.675-.834.797-1.466.123-.632.057-1.175-.198-1.627-.222-.474-.703-.786-1.444-.937-.741-.152-1.316-.055-1.725.29-.376.324-.628.815-.756 1.475-.122.632-.07 1.172.158 1.618.227.447.711.745 1.452.897Zm8.427-23.697c-1.28-.145-2.449-.405-3.507-.779-1.058-.374-1.906-.865-2.545-1.473a5.405 5.405 0 0 1-1.103-1.52 3.323 3.323 0 0 1-.308-1.852c.117-1.086.552-1.854 1.305-2.304.755-.478 1.675-.655 2.76-.532 1.085.124 1.958.519 2.618 1.186.636.635.9 1.454.792 2.457-.084.779-.342 1.342-.773 1.687-.46.342-.896.603-1.31.781l-.013.126c.377.155.744.281 1.1.378.33.066.732.126 1.205.179 1.864.212 3.447.026 4.749-.559 1.303-.585 2.051-1.782 2.246-3.591l.135-1.253c1.057.12 1.809.332 2.255.637.474.307.658.948.553 1.922-.201 1.866-1.201 3.175-3 3.929-1.796.725-4.183.919-7.159.581Zm-3.988-3.37c.584.067 1.061-.048 1.431-.344.342-.3.543-.728.603-1.284.06-.557-.045-1.02-.315-1.389-.298-.372-.739-.591-1.323-.658-.557-.063-1.006.055-1.348.355-.37.296-.585.722-.645 1.279-.06.557.059 1.021.357 1.393.27.369.683.585 1.24.648Zm30.691 31.298.167-15.959c.019-1.792-.498-3.226-1.551-4.302-1.025-1.075-2.559-1.624-4.603-1.647-1.652-.018-2.971.317-3.959 1.007-.959.689-1.655 1.661-2.088 2.917-.406 1.255-.617 2.709-.634 4.361-.01.98.035 2.044.134 3.194.1 1.149.242 2.326.426 3.533.211 1.206.422 2.398.634 3.577.535-.302 1.142-.772 1.821-1.408a25.064 25.064 0 0 0 2.039-2.162c.68-.804 1.206-1.569 1.578-2.293l.333.256a3.428 3.428 0 0 1-.505.121 2.79 2.79 0 0 1-.463.036c-1.148-.012-2.054-.358-2.719-1.038-.637-.707-.949-1.592-.938-2.656.012-1.148.372-2.068 1.079-2.76.707-.693 1.705-1.032 2.993-1.017 1.288.014 2.278.375 2.97 1.082.721.68 1.076 1.58 1.064 2.7a5.875 5.875 0 0 1-.7 2.723c-.457.863-.97 1.655-1.537 2.377a29.302 29.302 0 0 1-1.786 2.08 42.17 42.17 0 0 1-1.911 1.995 92.731 92.731 0 0 1-1.866 1.702c-.593.497-1.129.897-1.609 1.2l-2.813-.031a174.864 174.864 0 0 1-.747-4.88 86.457 86.457 0 0 1-.537-4.879c-.124-1.569-.18-2.914-.168-4.034.02-1.932.318-3.608.893-5.03.575-1.45 1.581-2.573 3.017-3.369 1.464-.796 3.512-1.179 6.144-1.15 3.36.037 5.775.749 7.244 2.138 1.498 1.36 2.234 3.259 2.209 5.695l-.142 13.523-2.083 2.413-1.386-.015Zm-6.318-10.319c.616.007 1.107-.17 1.475-.529.368-.36.555-.862.562-1.506.007-.644-.17-1.15-.53-1.518-.36-.396-.848-.598-1.464-.605-.616-.006-1.122.184-1.518.572-.368.36-.555.862-.562 1.506-.006.644.17 1.15.53 1.518.389.368.891.555 1.507.562Zm29.353 8.068c-1.437.232-2.716.297-3.837.194-1.124-.13-2.048-.52-2.77-1.169-.723-.65-1.188-1.652-1.395-3.008l-1.004-6.56c1.302-.749 2.376-1.688 3.223-2.818.847-1.129 1.149-2.482.908-4.06-.216-1.412-.764-2.401-1.644-2.968-.884-.595-1.865-.805-2.943-.631-.664.107-1.239.328-1.726.662a3.886 3.886 0 0 0-1.187 1.127 3.367 3.367 0 0 0-.533 1.235l.226.091c.215-.262.466-.472.753-.632.287-.16.652-.276 1.094-.347.94-.152 1.756 0 2.449.456.693.455 1.116 1.181 1.268 2.177.144.941-.039 1.779-.55 2.514-.483.73-1.291 1.187-2.425 1.37-1.188.192-2.187-.044-2.997-.708-.814-.691-1.318-1.673-1.513-2.946-.267-1.744.104-3.207 1.112-4.391 1.032-1.216 2.433-1.967 4.202-2.252 1.907-.308 3.514.014 4.821.966 1.307.951 2.092 2.285 2.355 4.001.207 1.357.033 2.718-.522 4.084-.556 1.366-1.464 2.561-2.723 3.587l.864 5.646c.169 1.108.585 1.877 1.246 2.309.661.433 1.641.544 2.94.334 1.271-.205 2.171-.62 2.699-1.244.527-.624.696-1.559.505-2.804l-1.347-8.802c-.127-.83-.383-1.484-.767-1.96a2.544 2.544 0 0 0-1.422-.962l-.146-.955c1.014-.589 1.775-1.265 2.281-2.027a5.32 5.32 0 0 0 .847-2.519 6.48 6.48 0 0 0-.276-2.636c.664-.107 1.227-.127 1.691-.06.486.035.88.198 1.179.49.3.292.496.743.589 1.351.204 1.329-.052 2.434-.767 3.315-.719.853-1.618 1.552-2.696 2.094l.019.125c.816.152 1.465.501 1.945 1.047.476.519.775 1.18.898 1.982l1.347 8.802c.305 1.993-.076 3.486-1.141 4.481-1.07.967-2.78 1.64-5.13 2.019Zm-10.251-13.958c.498-.081.875-.297 1.133-.651.257-.354.348-.779.271-1.278-.076-.498-.289-.875-.64-1.13-.351-.255-.775-.343-1.272-.263-.498.081-.875.298-1.133.651-.257.354-.348.78-.272 1.278.077.498.29.875.641 1.13.35.256.774.343 1.272.263Zm31.81 8.908c-1.246.424-2.312.402-3.198-.065-.895-.494-1.561-1.421-2-2.78l-.941-2.918c-.558-1.732-.749-3.234-.571-4.507.178-1.273.671-2.343 1.48-3.21.836-.875 1.916-1.538 3.241-1.989 1.034-.352 2.023-.526 2.965-.521a7.779 7.779 0 0 1 2.666.468 8.062 8.062 0 0 1 2.356 1.284l.106-.081-1.56-4.836c-.584-1.813-1.429-2.974-2.535-3.485-1.08-.52-2.6-.446-4.562.221-1.882.64-3.092 1.495-3.629 2.565-.546 1.044-.514 2.511.096 4.403-1.14.388-2.013.508-2.62.359-.589-.184-1.004-.649-1.244-1.395-.318-.986-.249-1.956.208-2.91.484-.963 1.298-1.861 2.441-2.693 1.144-.833 2.577-1.542 4.3-2.128 2.889-.983 5.23-1.114 7.022-.393 1.818.713 3.122 2.294 3.913 4.746l4.177 12.951-1.201 2.981-1.312.447-.967-2.998c-.61-1.892-1.412-3.468-2.407-4.726-.994-1.259-2.097-2.126-3.309-2.6a5.105 5.105 0 0 0-3.7-.117c-1.219.415-2.054 1.157-2.503 2.227-.423 1.06-.385 2.363.113 3.909l.22.679a1.79 1.79 0 0 1 .384-.175 3.35 3.35 0 0 1 .504-.216c1.087-.369 2.056-.329 2.907.12.878.441 1.501 1.235 1.871 2.38.369 1.146.317 2.17-.157 3.07-.483.874-1.335 1.519-2.554 1.933Zm-.409-1.679c.636-.216 1.048-.534 1.237-.953.206-.455.202-1.015-.013-1.681-.447-1.386-1.306-1.862-2.579-1.43-1.272.433-1.689 1.329-1.251 2.688.438 1.359 1.307 1.818 2.606 1.376Zm23.704-7.552-.754-1.455.958-.524c.492-.268.778-.568.858-.899.105-.345.016-.791-.267-1.338l-5.992-11.559.706-.099c-.046.217-.184.468-.414.753-.243.261-.574.505-.992.734-.958.523-1.93.656-2.915.397-.985-.259-1.755-.923-2.309-1.992-.541-1.044-.641-2.058-.3-3.042.328-1.009 1.094-1.842 2.298-2.501 1.106-.604 2.157-.796 3.154-.575 1.022.207 1.868.956 2.538 2.249l7.963 15.363 4.901-2.68c1.056-.577 1.734-1.187 2.032-1.828.298-.642.189-1.46-.326-2.454l-7.383-14.244.684-3.15 1.216-.665 8.311 16.034c.632 1.218.9 2.284.806 3.197-.083.874-.453 1.651-1.11 2.329-.657.679-1.526 1.313-2.607 1.904l-11.056 6.045Zm-6.449-16c1.278-.698 1.582-1.694.912-2.987-.67-1.292-1.644-1.589-2.922-.891-.589.322-.972.739-1.149 1.25-.152.498-.06 1.07.275 1.717.322.621.733 1.019 1.233 1.192.511.135 1.062.041 1.651-.281Zm29.804 17.153-1.991-3.064a.726.726 0 0 1-.22.202 3.07 3.07 0 0 1-.393.32c-.785.538-1.588.715-2.408.531-.806-.16-1.476-.651-2.01-1.473-.549-.845-.73-1.688-.542-2.53.164-.825.697-1.547 1.598-2.164.877-.602 1.746-.858 2.605-.768.859.089 1.579.58 2.159 1.472l2.632 4.05-.321 2.664-1.109.76Zm-3.197-3.917c.485-.333.763-.727.834-1.183.048-.44-.073-.883-.363-1.329-.305-.469-.665-.766-1.079-.889-.422-.084-.875.04-1.36.372-.485.333-.759.707-.822 1.124-.048.44.08.895.386 1.364.29.446.642.731 1.056.855.414.123.863.018 1.348-.314Zm15.496-19.716c-1.062.868-2.09 1.255-3.082 1.163-.988-.133-1.833-.653-2.536-1.561-.737-.952-1.038-1.935-.903-2.949.118-1.036.61-1.908 1.478-2.617.26-.212.546-.392.858-.538.333-.164.627-.241.882-.232l-.413.77-2.417-3.121c-.6-.775-1.172-1.284-1.714-1.528-.56-.265-1.147-.292-1.761-.079-.614.212-1.312.638-2.092 1.275l-5.009 4.092-.772-.996c-1.526-1.97-2.188-3.923-1.988-5.858.223-1.952 1.158-3.602 2.806-4.948.694-.567 1.383-1.003 2.066-1.309.667-.328 1.31-.618 1.929-.87a6.576 6.576 0 0 0 1.676-.99c.325-.266.683-.649 1.075-1.149.413-.518.59-1.043.533-1.574.337-.022.615.039.834.186.22.146.406.318.561.518.583.752.693 1.512.33 2.278-.341.748-.901 1.441-1.682 2.079a9.766 9.766 0 0 1-2.099 1.335c-.684.306-1.357.602-2.019.89a8.144 8.144 0 0 0-1.904 1.176c-.715.585-1.244 1.251-1.585 1.999a4.344 4.344 0 0 0-.426 2.192c.073.735.376 1.446.907 2.132l.206.266 4.814-3.933c1.67-1.364 3.152-1.942 4.446-1.734 1.293.208 2.506 1.043 3.638 2.504l3.909 5.047c.891 1.151 1.278 2.245 1.16 3.281-.096 1.018-.665 1.953-1.706 2.803Zm-1.126-1.249c.607-.496.91-.996.909-1.501.003-.544-.193-1.071-.587-1.58-.395-.51-.842-.813-1.342-.91-.496-.137-1.036.033-1.622.511-.585.479-.88.99-.883 1.535.002.505.208 1.023.62 1.554.394.509.831.821 1.309.936.479.115 1.011-.066 1.596-.545Zm-23.243-12.128-.681-.743c-.889-.97-1.376-2.018-1.459-3.145-.122-1.127.118-2.294.721-3.5.564-1.207 1.45-2.395 2.658-3.563 1.268-1.226 2.552-2.02 3.853-2.382 1.301-.362 2.53-.305 3.688.171l-1.589-1.734-.226-2.234.785-.759 5.052 5.511-12.802 12.378Zm1.492-3.778 7.276-7.036c-.57-.539-1.216-.809-1.939-.811-.723-.002-1.442.187-2.157.567a7.815 7.815 0 0 0-2.007 1.415c-1.087 1.051-1.734 2.085-1.94 3.102-.246 1.016.01 1.937.767 2.763Z"/>
    <path fill="#0C1F6B" d="M321.5 273c-28.5 4.614-58.5 31.5-76.5 40l7.5-14.5c15.5-6.166 55.141-35.48 69-33.5 24.5 3.5 20.974-11 40.5-11 15 0 16.332 28.784 28.5 29.5 7.044.415 10.043-7.029 19.5-6.5 7.769.435 8.04 11.601 19 12.5 8.986.738 18.457-6.964 27.5-6 9.043.964 10.5 1 10.5 1l11 15s-19.7 3.1-30.5 1.5c-13.5-2-25-9.5-34-10.5-7.2-.8-18.381.685-28-2.5-18.612-6.161-10-11.5-29.5-10-17.046 1.311-.879-10.443-34.5-5Z"/>
    <path fill="#0C1F6B" d="m237.5 337.5 2.5-9c4.167-.666 16.1-2.2 30.5-3 18-1 93.5-23.5 116.5-23.5 18.4 0 54 12.667 69.5 19L442 334c-6.833-6.166-27.4-19-55-21-34.5-2.5-109.5 26.5-121.5 26-9.6-.4-22.667-1.166-28-1.5Zm12 87.5s-2.5-3.5-6-13c-3.774-10.244-5-9.166-5-13 4.167-3.166 14.6-5.9 27-3.5 15.5 3 29 2.5 54-4l-9-.857c-8 1.5-32-1.143-43-2.143-8.8-.8-21.667 1.667-30 3l-2-8 5.304.505c7.556.218 20.658-.258 29.696.495 11.242.937 21 2.5 40 2.5 15.2 0 72.5-3.5 103-3.5 3.833.334 10.4 1 6 1-5.5 0-32.5 2.5-39 2.5s-62 2.143-70 3.643l9 .857c25-6.5 41.5 0 61 0s46-5 64.5-4c14.8.8 35.833 7 44.5 10-1.667 5-3 9-3 11s-4 11.667-5 13c-2-4-9.8-12.6-25-15-19-3-23.5-.5-23.5-4s22-4.5 28-1 12.5 8 16.5 5-5.5-8-15.5-11.5c-4.35-1.522-24.5-5.5-29-1.5-8 9-34 23.5-8 0 0-4.5-9.735 1.868-19 6.5-8.222 4.111-28 6-28 2.5s29-5.235 29-9c0-3.765-16 2-22 4S351 412 324.5 412s-42.5-3-54 1.5c-9.2 3.6-21 11.5-21 11.5Z"/>
    <path fill="#0C1F6B" d="m255.5 434.5-3.5-6c3-1 11.3-3.9 20.5-7.5s21.5-6.833 26.5-8l3.5 4c-6 1.167-19.8 4.5-27 8.5-7.2 4-16.333 7.667-20 9Z"/>
    <path fill="#BF6201" stroke="#000" stroke-width="3" d="m375 396.5-96.5 5.5 17.767 18.5h61.991l16.742-24Z"/>
    <path fill="#E6CD04" stroke="#000" stroke-width="3" d="M403.5 383.439c17-1 34 0 51 0H493s7-13 1-44.5c-2.768-14.535-15.5-40.5-28.5-35-7.149 3.024-4 8.561-10.5 17.061s-.5-1.5-16.5 4 2.5 8.439-16.5 13.939-24-10-43.5 3c-15.6 10.4-27.167 31.667-29.5 41.5 8.167 1 40.9.8 54.5 0Z"/>
    <path fill="#BF6201" d="M405.5 349c-3 .5-3.5-2-3.5-5.5 4.167-1.333 8.2-1 11-1 3.5 0 3.5 9.5 8.5 10s9-15.5 13.5-16 0-6 3.5-6 .5 4 3.5 4 1.5-6 5.5-7.5-1.5 4 1.5 4 8.5 0 6.5-1.5 4-7.5 5-10 1.26-12.13 5.5-11.5c4.319.642 1.281 9.573.5 13-1.251 5.492-3.594 7.824-8 10.5-3.928 2.386-8.5-.5-11.5 2.5s-14.743 6.554-12 9.5c1.389 1.492 1.5 2.5 5 1.5s11.5-5.5 13-5.5-1.5-3-1.5-3-2.323-.762-2.5-2c-.25-1.75 3.048-.509 4.5.5 1.579 1.098-1.5 4.5 2 4.5s3.5.5 7 2 8-3.5 15.5-6.5 4-9.5 5-11.5-2-8.5-4-7.5 1 5.5 0 7.5-3.5 10-8 8 2-17 2-18.5-1.354.938-2 0c-1.339-1.942 1-3.5 3.5-3.5s-2.5 9.5 0 9.5 0-7 3.5-7 10.053 10.588 9.5 17.5c-.583 7.296-8 5.5-13 11s-8 7-11 7-6-4-11.5-4-12.5 3.5-12 7 7.5 2 22 2 13-11 21-11 2 13 4.5 13c2 0 5.5-3.666 6.5-5.5l1 7-3 13h-22.5c-1.833-2-6.4-6.1-10-6.5-4.5-.5-15-2-17.5-3.5s-7 2.5-10 1.5 3-6-2-6-8.5 10.5-14 10-1-14.5-3-15.5-4.5-.5-7.5 0Z"/>
    <path fill="#87A215" d="M389 364.5c-5.2.4-5.05 8.564-10.5 9.5-6.024 1.035-7.2-7-14-7s-9.833 10.667-10.5 16h138c0-1.333 2.874-8.52 2.5-15-.27-4.686 2-12.96-1.5-12.5-5.213.686-7 11.5-7 11.5-.333-3.833-2-11.5-6-11.5s-8 7.667-9.5 11.5c-.5-3.833-2.7-11.5-7.5-11.5-6 0-9.5 11.5-12.5 11.5s-4-5-7.5-5-4 5-7 5-3-2.5-8-2.5-6.5 12.5-14 11.5-8.5-11.5-13-11.5-2 6.5-5 6.5-.5-7-7-6.5Z"/>
    <path fill="#E5E5E5" stroke="#000" stroke-width="3" d="M281 352.5c-4.8-17.6 1.5-36.5 5.5-42.5l29-7 1.5-4s-9.636-8.685-4.5-13.5c3.561-3.338 3.346 3.19 7 0 4.581-3.999 6-9 6-9s3.597 5.052 1 11c-1.714 3.925-5.5 9.5-5.5 9.5l-2 6 31-6s-6.1 17.3-4.5 40.5c1.6 23.2 18.666 40.167 26 46L302 397c-3.167-5.5-16.2-26.9-21-44.5Z"/>
    <path fill="#BF6201" d="M368 358.5c-3.394.755-9.574 5.376-6.5 7 1.93 1.02 3.7-1 6.5-1 3.5 0 5 8 10 8.5s4-6 7.5-8.5 6.697-1 8.5-1c8.5 0-3.5-5-6.5-5-4.608 0-5.5 6.5-9.5 7s-6.034-7.882-10-7Z"/>
    <path fill="#112064" d="M410 476c6 4.4 12.5 4 12.5 4l12-6.5c-1.5-3-11.4-12.3-15-15.5-4.5-4-23-13-24-10.5s4.5 3.5 9.5 6.5 9 5 7 9c-1.6 3.2-6.833 1.167-10.5-1.5 1.833 3.334 2.5 10.1 8.5 14.5Z"/>
    <path fill="#112064" d="M333.5 463c-24.902-5.168-28.167 3.667-40.5 9l-8.5-4.5c16.167-6.166 22.9-18.5 34.5-18.5 14.5 0 14.5 6.5 31.5 3 8.325-1.714 26.073-15.476 45-15.317 23.593.198 44.167 22.817 53 26.317l-6.5 4.5c-5.667-2.166-28.3-21.917-43.5-26.317-19-5.5-38.5 27.317-65 21.817Z"/>
    <path fill="#112064" d="m268 449 6.5 8c10-3.5 14.014-22.323 42.5-12.817 33.5 11.18 71.5-19.683 100-12.683 9.323 2.29 32.833 23.834 38.5 25.5l7-8c-10.5 8.667-22.878-20.646-43-24-39-6.5-67.087 20.636-102.5 11.683-20.5-5.183-37.5 7.651-49 12.317Z"/>
    <path fill="#112064" d="M473 436.683 468.5 442c-24.857-22.5-38.2-17.3-49-20.5-13.5-4-55 8-69 10s-36-3.5-50-2c-11.2 1.2-28.833 9.5-38 15l-4-5.5c8.667-4.5 26.4-10.9 42-12.5 19.5-2 35.5 1.5 47 0s51.5-16 74-12c18 3.2 49.333 16.667 53.5 19l2.5-5.5c-3.667-1.833-13.2-6.3-22-9.5-11-4-34-4-34-8s32.5-4 38 0c4.4 3.2 15.167 11 20 14.5l-2 3-2.5 5.5-2 3.183Z"/>
    <path fill="#BF6201" d="M394.504 358.016c-2.5-.5-5.632-1.727-5.5-4.5.16-3.366 4.1-1.5 8.5-1.5 5.5 0 10.5 3 8.5 3.5s-9 3-11.5 2.5Z"/>
    <path fill="#E5D402" d="M361.805 124.544c-5.091 0-14.492.471-17.556.707-.118-.825-.283-3.97 0-5.95s2.004-3.596 2.829-4.657c0-.943.212-3.323 1.06-5.303.849-1.98 2.475-2.946 3.182-3.182.707-4.159 3.144-12.281.707-20.506-5.657-19.092-9.717-29.88-9.071-47.79.574-15.904 5.119-30.996 18.849-31.363 14.108-.376 17.678 13.5 18.214 31.07.604 19.84-4.657 29.93-8.132 47.85-1.267 6.536.175 16.261.646 20.739 1.061.354 2.197 1.4 2.829 2.828.9 2.037.411 4.361.293 5.657.471.236 1.697.556 2.828 3.95 1.132 3.394.179 5.95.061 6.303-4.125-.118-11.647-.353-16.739-.353Z"/>
    <path stroke="#000" stroke-width="3" d="M375.655 114.644c.471.236 1.697.556 2.828 3.95 1.132 3.394.179 5.95.061 6.303-4.125-.118-11.647-.353-16.739-.353-5.091 0-14.492.471-17.556.707-.118-.825-.283-3.97 0-5.95s2.004-3.596 2.829-4.657m28.577 0h-28.577m28.577 0c.118-1.296.607-3.62-.293-5.657-.632-1.428-1.768-2.474-2.829-2.828m-25.455 8.485c0-.943.212-3.323 1.06-5.303.849-1.98 2.475-2.946 3.182-3.182m0 0h21.213m-21.213 0c.707-4.159 3.144-12.281.707-20.506-5.657-19.092-9.717-29.88-9.071-47.79.574-15.904 5.119-30.996 18.849-31.363 14.108-.376 17.678 13.5 18.214 31.07.604 19.84-4.657 29.93-8.132 47.85-1.267 6.536.175 16.261.646 20.739"/>
    <path fill="#E5D402" d="M364.013 604.178c5.091 0 14.492-.471 17.556-.707.118.825.283 3.97 0 5.95-.283 1.979-2.003 3.596-2.828 4.656 0 .943-.213 3.324-1.061 5.304-.849 1.98-2.475 2.946-3.182 3.182-.707 4.159-3.144 12.281-.707 20.506 5.657 19.092 9.717 29.88 9.071 47.79-.574 15.904-5.119 30.996-18.849 31.363-14.108.376-17.678-13.5-18.214-31.07-.604-19.84 4.657-29.931 8.132-47.851 1.267-6.536-.175-16.26-.646-20.738-1.061-.354-2.197-1.4-2.829-2.829-.9-2.036-.41-4.36-.293-5.657-.471-.235-1.697-.555-2.828-3.949-1.131-3.394-.179-5.95-.061-6.304 4.125.118 11.647.354 16.739.354Z"/>
    <path stroke="#000" stroke-width="3" d="M350.163 614.077c-.471-.235-1.697-.555-2.828-3.949-1.131-3.394-.179-5.95-.061-6.304 4.125.118 11.647.354 16.739.354 5.091 0 14.492-.471 17.556-.707.118.825.283 3.97 0 5.95-.283 1.979-2.003 3.596-2.828 4.656m-28.578 0h28.578m-28.578 0c-.117 1.297-.607 3.621.293 5.657.632 1.429 1.768 2.475 2.829 2.829m25.456-8.486c0 .943-.213 3.324-1.061 5.304-.849 1.98-2.475 2.946-3.182 3.182m0 0h-21.213m21.213 0c-.707 4.159-3.144 12.281-.707 20.506 5.657 19.092 9.717 29.88 9.071 47.79-.574 15.904-5.119 30.996-18.849 31.363-14.108.376-17.678-13.5-18.214-31.07-.604-19.84 4.657-29.931 8.132-47.851 1.267-6.536-.175-16.26-.646-20.738"/>
    <path fill="#E5D402" d="M603.678 354.709c0-5.091-.472-14.492-.707-17.556.825-.118 3.969-.283 5.949 0s3.597 2.003 4.657 2.828c.943 0 3.324.212 5.304 1.061 1.979.848 2.946 2.475 3.181 3.182 4.159.707 12.282 3.144 20.507.707 19.091-5.657 29.88-9.718 47.79-9.071 15.903.574 30.996 5.119 31.362 18.849.377 14.108-13.5 17.678-31.069 18.213-19.84.605-29.931-4.657-47.851-8.131-6.536-1.268-16.26.175-20.739.646-.353 1.061-1.399 2.197-2.828 2.828-2.036.9-4.36.411-5.657.293-.235.472-.555 1.697-3.95 2.829-3.394 1.131-5.949.178-6.303.06.118-4.124.354-11.647.354-16.738Z"/>
    <path stroke="#000" stroke-width="3" d="M613.577 368.558c-.235.472-.555 1.697-3.95 2.829-3.394 1.131-5.949.178-6.303.06.118-4.124.354-11.647.354-16.738 0-5.091-.472-14.492-.707-17.556.825-.118 3.969-.283 5.949 0s3.597 2.003 4.657 2.828m0 28.577v-28.577m0 28.577c1.297.118 3.621.607 5.657-.293 1.429-.631 2.475-1.767 2.828-2.828m-8.485-25.456c.943 0 3.324.212 5.304 1.061 1.979.848 2.946 2.475 3.181 3.182m0 0v21.213m0-21.213c4.159.707 12.282 3.144 20.507.707 19.091-5.657 29.88-9.718 47.79-9.071 15.903.574 30.996 5.119 31.362 18.849.377 14.108-13.5 17.678-31.069 18.213-19.84.605-29.931-4.657-47.851-8.131-6.536-1.268-16.26.175-20.739.646"/>
    <path fill="#E5D402" d="M124.544 351.513c0 5.091.471 14.492.707 17.556-.825.118-3.97.283-5.95 0s-3.596-2.003-4.657-2.828c-.943 0-3.323-.212-5.303-1.061-1.98-.848-2.946-2.475-3.182-3.182-4.159-.707-12.281-3.144-20.506-.707-19.092 5.657-29.88 9.718-47.79 9.071-15.904-.574-30.996-5.119-31.363-18.849-.376-14.108 13.5-17.678 31.07-18.213 19.84-.605 29.93 4.657 47.85 8.131 6.536 1.268 16.261-.175 20.739-.646.353-1.061 1.4-2.197 2.828-2.828 2.037-.9 4.361-.411 5.657-.293.236-.472.556-1.697 3.95-2.829 3.394-1.131 5.95-.178 6.303-.06-.118 4.124-.353 11.647-.353 16.738Z"/>
    <path stroke="#000" stroke-width="3" d="M114.644 337.664c.236-.472.556-1.697 3.95-2.829 3.394-1.131 5.95-.178 6.303-.06-.118 4.124-.353 11.647-.353 16.738 0 5.091.471 14.492.707 17.556-.825.118-3.97.283-5.95 0s-3.596-2.003-4.657-2.828m0-28.577v28.577m0-28.577c-1.296-.118-3.62-.607-5.657.293-1.428.631-2.475 1.767-2.828 2.828m8.485 25.456c-.943 0-3.323-.212-5.303-1.061-1.98-.848-2.946-2.475-3.182-3.182m0 0v-21.213m0 21.213c-4.159-.707-12.281-3.144-20.506-.707-19.092 5.657-29.88 9.718-47.79 9.071-15.904-.574-30.996-5.119-31.363-18.849-.376-14.108 13.5-17.678 31.07-18.213 19.84-.605 29.93 4.657 47.85 8.131 6.536 1.268 16.261-.175 20.739-.646"/>
    <path fill="#E5D402" d="M185.341 521.586c3.6 3.6 10.581 9.914 12.915 11.914-.5.667-2.607 3.007-4.207 4.207-1.6 1.2-3.96 1.127-5.293 1.293-.667.667-2.5 2.2-4.5 3-2 .8-3.834.334-4.5 0-3.441 2.441-10.908 6.461-15 14-9.5 17.5-14.258 28-27.379 40.207-11.651 10.84-25.537 18.298-35.505 8.848-10.242-9.709-2.954-22.046 9.091-34.848 13.601-14.456 24.457-17.871 39.586-28.085 5.517-3.726 11.373-11.622 14.207-15.122-.5-1-.564-2.543 0-4 .803-2.076 2.793-3.374 3.793-4.207-.167-.5-.808-1.593.792-4.793s4.081-4.333 4.415-4.5c2.833 3 7.985 8.486 11.585 12.086Z"/>
    <path stroke="#000" stroke-width="3" d="M168.549 518.793c-.167-.5-.808-1.593.792-4.793s4.081-4.333 4.415-4.5c2.833 3 7.985 8.486 11.585 12.086 3.6 3.6 10.581 9.914 12.915 11.914-.5.667-2.607 3.007-4.207 4.207-1.6 1.2-3.96 1.127-5.293 1.293m-20.207-20.207 9.792 9.793L188.756 539m-20.207-20.207c-1 .833-2.99 2.131-3.793 4.207-.564 1.457-.5 3 0 4m24 12c-.667.667-2.5 2.2-4.5 3-2 .8-3.834.334-4.5 0m0 0-15-15m15 15c-3.441 2.441-10.908 6.461-15 14-9.5 17.5-14.258 28-27.379 40.207-11.651 10.84-25.537 18.298-35.505 8.848-10.242-9.709-2.954-22.046 9.091-34.848 13.601-14.456 24.457-17.871 39.586-28.085 5.517-3.726 11.373-11.622 14.207-15.122"/>
    <path fill="#E5D402" d="M543.086 521.414c3.6-3.6 9.914-10.58 11.914-12.914.667.5 3.007 2.607 4.207 4.207 1.2 1.6 1.126 3.96 1.293 5.293.667.667 2.2 2.5 3 4.5.8 2 .333 3.834 0 4.5 2.441 3.441 6.461 10.908 14 15 17.5 9.5 28 14.258 40.207 27.379 10.84 11.651 18.298 25.537 8.848 35.505-9.709 10.242-22.046 2.954-34.848-9.091-14.457-13.602-17.871-24.457-28.086-39.586C559.896 550.69 552 544.834 548.5 542c-1 .5-2.543.564-4 0-2.076-.803-3.374-2.793-4.207-3.793-.5.167-1.593.807-4.793-.793s-4.333-4.08-4.5-4.414c3-2.833 8.486-7.986 12.086-11.586Z"/>
    <path stroke="#000" stroke-width="3" d="M540.293 538.207c-.5.167-1.593.807-4.793-.793s-4.333-4.08-4.5-4.414c3-2.833 8.486-7.986 12.086-11.586 3.6-3.6 9.914-10.58 11.914-12.914.667.5 3.007 2.607 4.207 4.207 1.2 1.6 1.126 3.96 1.293 5.293m-20.207 20.207 9.793-9.793L560.5 518m-20.207 20.207c.833 1 2.131 2.99 4.207 3.793 1.457.564 3 .5 4 0m12-24c.667.667 2.2 2.5 3 4.5.8 2 .333 3.834 0 4.5m0 0-15 15m15-15c2.441 3.441 6.461 10.908 14 15 17.5 9.5 28 14.258 40.207 27.379 10.84 11.651 18.298 25.537 8.848 35.505-9.709 10.242-22.046 2.954-34.848-9.091-14.457-13.602-17.871-24.457-28.086-39.586C559.896 550.69 552 544.834 548.5 542"/>
    <path fill="#E5D402" d="M532.914 194.29c-3.6-3.6-10.581-9.914-12.914-11.914.5-.666 2.607-3.007 4.207-4.207 1.6-1.2 3.96-1.126 5.293-1.293.667-.666 2.5-2.2 4.5-3 2-.8 3.833-.333 4.5 0 3.441-2.44 10.907-6.461 15-14 9.5-17.5 14.257-28 27.379-40.207 11.651-10.839 25.537-18.298 35.505-8.848 10.242 9.71 2.954 22.046-9.091 34.848-13.602 14.457-24.457 17.871-39.586 28.086-5.517 3.725-11.374 11.621-14.207 15.121.5 1 .564 2.543 0 4-.804 2.076-2.793 3.374-3.793 4.207.167.5.807 1.593-.793 4.793s-4.081 4.334-4.414 4.5c-2.833-3-7.986-8.486-11.586-12.086Z"/>
    <path stroke="#000" stroke-width="3" d="M549.707 197.083c.167.5.807 1.593-.793 4.793s-4.081 4.334-4.414 4.5c-2.833-3-7.986-8.486-11.586-12.086-3.6-3.6-10.581-9.914-12.914-11.914.5-.666 2.607-3.007 4.207-4.207 1.6-1.2 3.96-1.126 5.293-1.293m20.207 20.207-9.793-9.793-10.414-10.414m20.207 20.207c1-.833 2.989-2.131 3.793-4.207.564-1.457.5-3 0-4m-24-12c.667-.666 2.5-2.2 4.5-3 2-.8 3.833-.333 4.5 0m0 0 15 15m-15-15c3.441-2.44 10.907-6.461 15-14 9.5-17.5 14.257-28 27.379-40.207 11.651-10.839 25.537-18.298 35.505-8.848 10.242 9.71 2.954 22.046-9.091 34.848-13.602 14.457-24.457 17.871-39.586 28.086-5.517 3.725-11.374 11.621-14.207 15.121"/>
    <path fill="#E5D402" d="M192.79 195.842c-3.6 3.6-9.914 10.58-11.914 12.914-.667-.5-3.007-2.607-4.207-4.207-1.2-1.6-1.126-3.96-1.293-5.293-.667-.667-2.2-2.5-3-4.5-.8-2-.333-3.834 0-4.5-2.441-3.441-6.461-10.908-14-15-17.5-9.5-28-14.258-40.207-27.379-10.84-11.651-18.298-25.537-8.848-35.505 9.709-10.242 22.046-2.954 34.848 9.091 14.457 13.601 17.871 24.457 28.086 39.586 3.725 5.517 11.621 11.373 15.121 14.207 1-.5 2.543-.564 4 0 2.076.803 3.374 2.793 4.207 3.793.5-.167 1.593-.807 4.793.793s4.333 4.08 4.5 4.414c-3 2.833-8.486 7.986-12.086 11.586Z"/>
    <path stroke="#000" stroke-width="3" d="M195.583 179.049c.5-.167 1.593-.807 4.793.793s4.333 4.08 4.5 4.414c-3 2.833-8.486 7.986-12.086 11.586-3.6 3.6-9.914 10.58-11.914 12.914-.667-.5-3.007-2.607-4.207-4.207-1.2-1.6-1.126-3.96-1.293-5.293m20.207-20.207-9.793 9.793-10.414 10.414m20.207-20.207c-.833-1-2.131-2.99-4.207-3.793-1.457-.564-3-.5-4 0m-12 24c-.667-.667-2.2-2.5-3-4.5-.8-2-.333-3.834 0-4.5m0 0 15-15m-15 15c-2.441-3.441-6.461-10.908-14-15-17.5-9.5-28-14.258-40.207-27.379-10.84-11.651-18.298-25.537-8.848-35.505 9.709-10.242 22.046-2.954 34.848 9.091 14.457 13.601 17.871 24.457 28.086 39.586 3.725 5.517 11.621 11.373 15.121 14.207"/>
  </g>
  <defs>
    <clipPath id="a">
      <path fill="#fff" d="M0 0h728v729H0z"/>
    </clipPath>
  </defs>
</svg>
